# xmcd
#
# Track frame offsets:
#	150
#	35155
#	71804
#	143719
#	163897
#	194310
#	228237
#	265479
#
# Disc length: 4327 seconds
#
# Revision: 0
# Processed by: cddbd v1.5.2PL0 Copyright (c) Steve Scherf et al.
# Submitted via: EasyCDDAExtractor 16.0.1.1
#
DISCID=7810e508
DTITLE=Ronnie Earl and Duke Robillard - The Duke Meets the Earl
DYEAR=2005
DGENRE=Blues
TTITLE0=West Side Shuffle
TTITLE1=Two Bones and A Pick
TTITLE2=My Tears
TTITLE3=Lookin For Trouble
TTITLE4=What Have I Done Wrong
TTITLE5=Zeb's Thing
TTITLE6=I Need You So Bad
TTITLE7=A Soul That's Been Abused
EXTD=
EXTT0=
EXTT1=
EXTT2=
EXTT3=
EXTT4=
EXTT5=
EXTT6=
EXTT7=
PLAYORDER=
